# xmcd
#
# Track frame offsets: 
#        150
#        3871
#        27359
#        51443
#        79979
#        109203
#        130485
#        155462
#        178657
#        213142
#        233245
#        277993
#
# Disc length: 4366 seconds
#
# Revision: 8
# Processed by: cddbd v1.5.2PL0 Copyright (c) Steve Scherf et al.
# Submitted via: ExactAudioCopyFreeDBPlugin 1.0
#
DISCID=9f110c0c
DTITLE=Etta James and The Roots Band - Burnin' Down The House
DYEAR=2002
DGENRE=Blues
TTITLE0=Etta James - Introduction
TTITLE1=Etta James - Come to Mama
TTITLE2=Etta James - I Just Want To Make Love To You - Born To Be Wild
TTITLE3=Etta James - I'd Rather Go Blind
TTITLE4=Etta James - All The Way Down
TTITLE5=Etta James - At Last
TTITLE6=Etta James - You Can Leave Your Hat On
TTITLE7=Etta James - Something's Got A Hold On Me
TTITLE8=Etta James - Your Good Thing Is About To End
TTITLE9=Etta James - Rock Me Baby
TTITLE10=Etta James - Love and Happiness - Take Me To The River - My Fun
TTITLE10=ny Valentine
TTITLE11=Etta James - Sugar On The Floor
EXTD=YEAR: 2002
EXTT0=
EXTT1=
EXTT2=
EXTT3=
EXTT4=
EXTT5=
EXTT6=
EXTT7=
EXTT8=Hagbard©
EXTT9=
EXTT10=
EXTT11=
PLAYORDER=
